<svg xmlns="http://www.w3.org/2000/svg" viewBox="0 0 520 320" font-family="system-ui,sans-serif" font-size="13">
  <title>Ports hôte Rac6TT 6600-6606</title>
  <rect width="520" height="320" fill="#0f1419"/>
  <text x="20" y="28" fill="#e6edf3" font-weight="600">Navigateur / hôte Linux</text>
  <g fill="#21262d" stroke="#484f58">
    <rect x="20" y="44" width="120" height="36" rx="4"/><text x="32" y="67" fill="#8b949e">6600 Postgres</text>
    <rect x="20" y="88" width="120" height="36" rx="4"/><text x="32" y="111" fill="#8b949e">6601 Redis</text>
    <rect x="20" y="132" width="120" height="36" rx="4"/><text x="32" y="155" fill="#58a6ff">6602 API Go</text>
    <rect x="20" y="176" width="120" height="36" rx="4"/><text x="32" y="199" fill="#58a6ff">6603 Nuxt</text>
    <rect x="20" y="220" width="120" height="36" rx="4"/><text x="32" y="243" fill="#3fb950">6604 Godot WS</text>
    <rect x="20" y="264" width="120" height="36" rx="4"/><text x="32" y="287" fill="#3fb950">6605 Jeu web</text>
    <rect x="160" y="264" width="120" height="36" rx="4"/><text x="172" y="287" fill="#d2a8ff">6606 noVNC</text>
  </g>
  <text x="300" y="60" fill="#8b949e">Réseau Docker game-net</text>
  <g fill="#161b22" stroke="#30363d">
    <rect x="300" y="80" width="200" height="200" rx="8"/>
    <text x="320" y="110" fill="#e6edf3">postgres:5432</text>
    <text x="320" y="135" fill="#e6edf3">redis:6379</text>
    <text x="320" y="160" fill="#e6edf3">backend:8080</text>
    <text x="320" y="185" fill="#e6edf3">frontend:3000</text>
    <text x="320" y="210" fill="#e6edf3">godot:8999</text>
    <text x="320" y="235" fill="#e6edf3">webclient:80</text>
  </g>
  <path d="M140 62 H280" stroke="#484f58" marker-end="url(#a)"/>
  <defs><marker id="a" markerWidth="6" markerHeight="6" refX="5" refY="3" orient="auto"><path d="M0,0 L6,3 L0,6" fill="#484f58"/></marker></defs>
  <text x="180" y="54" fill="#6e7681" font-size="11">NAT / publish</text>
</svg>
